# xmcd
#
# Track frame offsets:
#	150
#	31942
#	50466
#	74399
#	96874
#	124428
#	144938
#	166107
#	191479
#	218249
#	239385
#
# Disc length: 3520 seconds
#
# Revision: 65538
# Processed by: cddbd v1.5.2PL0 Copyright (c) Steve Scherf et al.
# Submitted via: EZCDAudioConverter 8.0.2.1
#
DISCID=9a0dbe0b
DTITLE=Quang Lê, Mai Thiên Vân - Đôi Mắt Người Xưa
DYEAR=2009
DGENRE=World Pop
TTITLE0=Quang Lê, Mai Thiên Vân - Lk Nhớ nhau hoài, Cho người vào cuộc chiến
TTITLE1=Mai Thiên Vân - Người tình không đến
TTITLE2=Quang Lê, Mai Thiên Vân - Áo đẹp nàng dâu
TTITLE3=Quang Lê - Đôi Mắt Người Xưa
TTITLE4=Quang Lê, Mai Thiên Vân - Căn nhà màu tím
TTITLE5=Mai Thiên Vân - Sương lạnh chiều đông
TTITLE6=Quang Lê, Mai Thiên Vân - Đêm tâm sự
TTITLE7=Quang Lê - Lời tạ từ
TTITLE8=Quang Lê, Mai Thiên Vân - Hái hoa rừng cho em
TTITLE9=Mai Thiên Vân - Rừng chưa thay lá
TTITLE10=Quang Lê - Trộm nhìn nhau
EXTD=
EXTT0=
EXTT1=
EXTT2=
EXTT3=
EXTT4=
EXTT5=
EXTT6=
EXTT7=
EXTT8=
EXTT9=
EXTT10=
PLAYORDER=
